<?xml version="1.0" encoding="UTF-8"?>
<svg xmlns="http://www.w3.org/2000/svg" version="1.1" viewBox="0 0 345.43 383.14">
  <defs>
    <style>
      .cls-1 {
        fill: #010101;
      }
    </style>
  </defs>
  <!-- Generator: Adobe Illustrator 28.7.3, SVG Export Plug-In . SVG Version: 1.2.0 Build 164)  -->
  <g>
    <g id="Layer_1">
      <path class="cls-1" d="M185.92,208.46c1.46-.97,2.96-2.24,3.34-2.82.38-.58,1.02-.83,1.43-.56.4.27.76-.07.78-.77.04-.91.6-1.14,2.04-.82,1.59.35,2,.11,2.05-1.2.05-1.32.45-1.55,2.05-1.18,1.55.36,2,.13,2.05-1.05.05-1.24.44-1.4,2.24-.87,1.97.57,2.08.5,1.13-.74-.93-1.22-.82-1.37,1.01-1.3,1.13.04,2.31-.31,2.63-.78.33-.49,1.57-.62,2.87-.31,1.35.33,2.3.21,2.32-.28.02-.47.72-.59,1.62-.26.91.33,1.6.21,1.62-.28.02-.47.49-.84,1.04-.82.55.02,1.47-.63,2.03-1.46.7-1.03,1.56-1.33,2.76-.97,1.13.34,1.57.22,1.25-.35-.31-.54.8-1.04,2.9-1.32,2.27-.29,3.49-.13,3.66.47.44,1.53,1.61,1.07,1.26-.5-.28-1.25.09-1.4,2.52-1.02,1.56.24,2.62.76,2.36,1.15-.26.39-.86.45-1.34.13-.55-.37-.7-.1-.4.77.25.74.14,1.34-.25,1.33s-.85-.48-1.02-1.04c-.17-.56-.36-.04-.41,1.16-.08,1.83.13,2.07,1.34,1.48.79-.38,1.67-1.24,1.96-1.9.6-1.39,3.09-1.57,2.74-.2-.14.55.87.94,2.57,1,5.68.18,5.6.22,5.25-2.61-.27-2.14-.18-2.36.51-1.18.97,1.67,3.95,2.05,4.01.52.02-.58.93-1.01,2.04-.96,1.1.04,1.99.37,1.98.72-.01.35-.75.61-1.63.58-.88-.03-1.62.26-1.63.65-.04,1,2.19,1.85,2.73,1.05.24-.36,1.69-.84,3.22-1.07,1.53-.22,2.94-.84,3.14-1.37.28-.73.68-.68,1.67.2q1.43,1.27,2.82-1.01c.83-1.37.96-1.39.93-.16-.04,1.92,1.61,1.84,2.2-.11.27-.87,1.07-1.56,1.79-1.52.99.05,1.05.21.24.68-.85.49-.82.84.13,1.7,1.01.91,1.21.84,1.27-.42.05-1.11.23-1.22.7-.42.65,1.11,7.4,2.24,9.84,1.65.76-.19,1.22-.8,1.03-1.36-.38-1.12-3.27-1.59-12.07-1.99-3.18-.14-5.61-.52-5.39-.84.67-1-4.88-1.47-5.86-.49-.51.51-1.69.7-2.62.41-1.28-.39-1.42-.67-.59-1.15.6-.35.72-.66.25-.68-.46-.02-1.31.39-1.87.91-.66.61-1.23.66-1.57.14-.3-.45-1.04-.95-1.66-1.11-.91-.24-.95-.06-.18.95.79,1.04.68,1.21-.69,1.05-.9-.1-1.8-.66-1.99-1.24-.48-1.4-7.6-1.71-7.67-.33-.03.66-.24.71-.61.13-.33-.52-3.86-.98-8.77-1.15-4.76-.16-8.34-.62-8.52-1.09-.21-.54-.54-.56-1-.04-.69.77-21.14.36-21.11-.43,0-.22-1.7-.5-3.79-.62-4.9-.28-7.06-.81-10.91-2.66-4.61-2.22-7.82-6.08-7.41-8.91.18-1.27-.04-2.32-.5-2.34-.46-.02-.6-.58-.32-1.25.29-.67-.04-1.88-.72-2.7-.68-.82-1.03-1.69-.76-1.94.27-.25-.25-1.25-1.14-2.22-.95-1.03-1.36-2.16-.99-2.71,1.12-1.64,1.2-3.22.37-7.38-.44-2.22-.7-4.35-.58-4.72.12-.37-.18-1.2-.67-1.83-.49-.63-.61-1.14-.29-1.13.33.01.17-.53-.35-1.22-.52-.68-.64-1.23-.25-1.23.39,0,.17-.36-.47-.81-.78-.55-.84-.82-.17-.8,1.55.04,1.32-3.52-.36-5.62-1.09-1.36-1.29-2.26-.72-3.23,1.04-1.78.75-5.61-.49-6.45-.75-.51-.75-.8,0-1.22.61-.34.8-1.36.51-2.69-.25-1.18-.53-3.4-.62-4.95-.29-5.19-.99-10.06-1.57-10.9-.32-.45-.57-1.73-.57-2.83,0-3.11-.23-10.78-.34-11.36-.05-.28-.81-.73-1.68-.99-1.57-.48-2.2-3.06-.73-3.01,1.15.04,1.72,1.48.76,1.91-.46.21-.38.3.19.21.57-.09,1.19-1.16,1.38-2.38.25-1.55.06-2.05-.63-1.66-.73.42-.81-.71-.3-4.56.56-4.24.42-5.57-.81-7.78-1.51-2.73-2.04-4.84-.65-2.6.58.93.74.56.65-1.52-.07-1.51-.61-2.94-1.22-3.16-.61-.23-.89-.04-.62.43.26.46,0,1-.58,1.2-1.11.38-1.61,9.08-.7,12.38.26.93.16,1.86-.22,2.07-1.02.57-1.4,5.89-.48,6.51.44.3.82.1.84-.44.02-.54.25-.76.5-.48.25.28-.12,1.27-.84,2.21-1.15,1.51-1.17,1.86-.17,2.94.72.78.9,1.84.5,2.92-.35.93-.69,2.42-.76,3.3-.07.88-.39,1.97-.7,2.42-.32.45-.3,1.3.03,1.9.33.59.4,1.75.15,2.58-.28.93-.04,1.52.64,1.55.86.04.83.23-.14.86-.96.62-1.01.9-.22,1.26.78.35.79.71.05,1.54-.56.62-.73,1.69-.4,2.51.81,2.06.81,2.77,0,5.39-.48,1.55-.42,2.55.19,2.96.64.43.65.93.05,1.65-.51.61-.99,5.59-1.17,12.25-.17,6.17-.63,11.62-1.03,12.11-.4.49-.66,1.2-.59,1.58.08.38-.16,1.94-.52,3.47-.36,1.53-.88,4.58-1.16,6.78-.28,2.2-.67,4.53-.87,5.18-.2.65-.69,2.53-1.1,4.17-.4,1.64-1.09,2.97-1.53,2.95-.44-.02-.61.52-.38,1.19.23.67.03,1.2-.45,1.19-.53-.02-.7.82-.44,2.19.29,1.49.2,1.85-.27,1.08-.58-.95-1.1-.88-3.05.41-2.6,1.71-5.58,5.88-4.81,6.71.27.29.03.52-.53.49-.58-.02-.8-.55-.5-1.24.43-1.01.22-1.07-1.3-.35-1,.47-2.47,1.38-3.27,2.02-.8.64-1.44.86-1.42.49.01-.37-1.02.25-2.3,1.39-1.28,1.13-3.4,2.15-4.7,2.26-2.22.18-8.59,1.48-16.14,3.29-3.73.89-3.12.77-7.27,1.43-1.77.28-3.55.7-3.94.92-.4.22-2.21.43-4.04.46-4.22.07-5.67.4-7.31,1.65-.73.56-2.07.78-2.98.51-2.15-.65-12.88,1.71-13.77,3.04-.53.78-.8.68-1.17-.42-.46-1.37-.57-1.37-2.18-.07-.93.75-1.42.93-1.07.39.41-.65.08-1-.97-1.04-.88-.03-1.82.56-2.1,1.32-.28.76-1.4,1.75-2.48,2.2-1.72.71-2.03.6-2.39-.9-.41-1.68-.44-1.67-1.65.24-.68,1.08-1.23,1.6-1.24,1.16,0-.44-1.66-.96-3.69-1.16-2.77-.27-3.59-.1-3.32.71.22.63-.26,1.09-1.17,1.12-.84.03-1.31-.28-1.04-.68.27-.4-.31-.77-1.3-.8-1.73-.07-1.75-.02-.37,1.39,1.33,1.37,5.14,2.19,5.18,1.12.01-.27.91-.28,2.01-.03,1.09.25,1.98.76,1.96,1.12-.01.36.97.19,2.19-.38,1.22-.57,2.4-.78,2.63-.45.54.79,9.61,1.38,9.64.63.01-.32,2.18-.35,4.82-.05,4,.45,4.8.32,4.84-.74.04-1.05.42-1.12,2.12-.4,1.45.62,2.41.62,3.21,0,.86-.66,1.13-.64,1.1.09-.04,1.13,5.02.5,5.52-.68.18-.44.66-.41,1.2.07,1.19,1.06,5.42,1.62,6.71.9.56-.31,1.01-.27,1,.11-.01.37,8.17,1.04,18.2,1.49,10.02.45,19.13,1.02,20.24,1.28,4.04.93,8.7,2.77,8.67,3.43-.01.37.52.7,1.2.72.67.03,1.5.89,1.85,1.91.34,1.02,1.13,2.32,1.74,2.87.61.55,1.69,3.19,2.38,5.85.69,2.67,1.58,4.67,1.96,4.45.38-.22.67.35.63,1.25-.04.91.3,1.66.74,1.68.44.02.82-.39.84-.9.02-.52.24-.72.48-.45.25.27-.18,1.36-.94,2.43-.87,1.22-1.09,2.14-.6,2.48.43.29.57,1.05.29,1.69-.34.79.04,1.18,1.19,1.22,1.94.08,2.21,1.52.4,2.13-1.69.57-1.63,3.3.15,6.97.83,1.7,1.28,3.43,1.01,3.84-.27.41-.08.76.43.78.52.02.7.59.4,1.29-.29.69-.3,1.67-.02,2.17.92,1.62.8,4.6-.18,4.59-.6,0-.52.37.22,1.01.72.63,1.15,2.55,1.12,5.03-.07,6.76.61,16.01,1.29,17.3.52.99.66.92.75-.37.09-1.3.23-1.37.75-.37.36.68.29,3.02-.14,5.21-.43,2.19-.63,4.26-.44,4.61.86,1.58.84,4.9-.04,5.88-.54.6-.63,1.1-.21,1.11.76.03,1.01,4.48.82,14.73-.07,3.79.24,5.7,1.03,6.22.73.49,1.33.4,1.74-.26.63-1.03,1.46-16.86,1.62-30.71.05-4.08.36-7.41.7-7.4.34.01.64-.52.66-1.18.03-.66-.33-1.22-.78-1.23-.55-.02-.55-.51,0-1.45.5-.86.56-1.88.14-2.6-.94-1.62-.74-5.39.32-5.99.59-.33.59-.84,0-1.62-.48-.62-.58-1.55-.23-2.07,1.13-1.69,1.89-19.09.83-19.16-.52-.03-.27-.54.56-1.11,1.31-.91,1.51-2.05,1.54-8.67.02-4.19.24-7.48.5-7.31.41.27.67-1.23,1.01-5.82.23-3.02,1.02-4.96,1.92-4.74.52.13,1.35-.56,1.84-1.54.49-.97,1.37-1.75,1.95-1.73.59.02.88-.27.67-.65-.21-.38.8-1.49,2.26-2.46ZM239.63,190.06c.77.63,1.06,1.35.65,1.59-.42.24-1.38-.31-2.13-1.21-1.56-1.87-.62-2.11,1.48-.38ZM195.1,197.69c.75-.02,1.58.35,1.85.84.27.48.27,1.08,0,1.34-.27.25-.48.07-.47-.41.02-.48-.59-1.07-1.35-1.3-1.25-.38-1.25-.42-.03-.46ZM70.78,202.36c-.63.94-.55.94-2-.08-.94-.66-.81-.81.68-.76,1.03.03,1.62.41,1.32.84ZM133.07,196.46c-1.28,0-2.88.66-3.54,1.47-1.14,1.39-1.2,1.39-1.18.01.02-1.12-.37-1.35-1.69-.98-1.31.36-1.56.22-1.06-.59,1.79-2.85,2.29-3.09,3.65-1.75,1.33,1.3,4.34,1.02,3.58-.33-.23-.4.11-.5.75-.23,2.2.94,1.88,2.41-.52,2.4ZM139.83,196.23c-1.87-.07-3.39-.48-3.37-.92.04-1.02,4.07-.87,5.61.22.86.6.26.79-2.23.7ZM148.12,196.56c-.15,0-.7-.57-1.23-1.25-.55-.72-.61-1.23-.14-1.21.45.02,1,.58,1.23,1.25.22.67.29,1.22.14,1.21ZM149.28,187.56c-.28.26-.45-.22-.38-1.07.07-.93.27-1.11.5-.47.21.59.15,1.28-.12,1.53ZM150.29,182.33c-.3,1.26-2.17,1.8-2.12.61.02-.5.36-.7.75-.43.39.26.91.12,1.16-.33.24-.45.34-.38.21.15ZM151.65,196.7c-.44-.02-.78-.59-.75-1.28.03-.69.4-1.01.83-.72.43.29.77.87.75,1.28-.02.42-.39.74-.83.72ZM156.25,181.63c.44.02.78.55.76,1.19-.02.64-.41,1.36-.87,1.62-.45.25-.79-.28-.76-1.19.04-.91.43-1.64.87-1.62ZM157.06,209.17c-.52.3-1.76-.2-2.77-1.1-1.53-1.38-1.6-1.64-.42-1.62.77.02,1.39.36,1.37.77-.02.41.6.89,1.36,1.08.92.22,1.07.52.45.88ZM166.5,126.23c.42-.24.72.85.65,2.42-.06,1.57-.42,2.84-.79,2.83-.93-.04-.81-4.71.14-5.24ZM164.06,160.12c.21.59.15,1.28-.12,1.53-.28.26-.45-.22-.38-1.07.08-.93.27-1.11.5-.47ZM160.27,165.44c.28-2.29,1.11-2.72,1.73-.89.22.64-.14,1.57-.8,2.07-.99.76-1.15.56-.93-1.18ZM160.37,215.61c-.3.8-.49.8-.96-.04-.63-1.11.09-2.31.88-1.46.26.28.29.95.09,1.5ZM164.17,166.57c-.86.92-1.85,1.66-2.2,1.64-.35-.01.01-.68.8-1.49,1.11-1.13,1.2-1.56.4-1.89-.83-.34-.83-.63,0-1.45.86-.84,1.03-.77.99.39-.03.78.31,1.2.77.95,1.26-.71.96.01-.77,1.85ZM166.77,179.45c-.02.41-.79,1.38-1.72,2.16-1.66,1.39-1.68,1.38-.91-.47.78-1.88,2.68-3.1,2.63-1.69ZM169.31,164.79c-.73.25-1.04.1-.74-.34.29-.42.22-.79-.16-.8-.37-.01-.71-.78-.74-1.71-.06-1.65-.04-1.65,1.43.18.82,1.02,1.48,1.94,1.48,2.05,0,.1-.57.39-1.27.62ZM172.7,172.65c.47.02.61.39.32.82-.29.43-.69.78-.88.77-.19,0-.34-.37-.32-.82.02-.44.41-.79.88-.77ZM171.11,224.53c-.28.26-.45-.22-.38-1.07.08-.93.27-1.11.5-.47.21.59.15,1.28-.12,1.53ZM172.19,205.64c-1.33,1.48-1.65,1.57-1.62.48.04-2.26,1.74-5.53,2.57-4.97.43.29.76,1.01.74,1.59-.02.59-.78,1.89-1.69,2.9ZM177.59,180.59c-1.95-.08-2.88-1.1-2.28-2.5.38-.89.21-1.25-.53-1.09-.61.13-.82.1-.48-.08.34-.17.43-.65.2-1.06-.23-.41.13-.5.81-.21.67.29,1.21.91,1.19,1.38-.02.47.49,1.47,1.12,2.23,1,1.2,1,1.37-.02,1.33ZM219.93,193.07c.48.19.52.75.1,1.38-.53.79-.86.81-1.26.1-.64-1.13,0-1.93,1.17-1.47ZM283.2,188.21c-.26-.47.06-.59.77-.29,1.37.59,1.6,1.17.45,1.13-.41-.02-.96-.39-1.21-.84ZM225.42,192.68c.26.28-.23.45-1.07.38-.93-.07-1.11-.27-.47-.5.59-.21,1.28-.16,1.53.12Z"/>
    </g>
  </g>
</svg>